<svg xmlns="http://www.w3.org/2000/svg" viewBox="0 0 22 22"><defs><style>.cls-1{fill:none;}.cls-2{fill:#c1e5b7;}</style></defs><g id="Layer_2" data-name="Layer 2"><g id="Layer_1-2" data-name="Layer 1"><rect class="cls-1" width="22" height="22"/><path class="cls-2" d="M13.38,2.25h4.27a.48.48,0,0,1,.48.48V19.27a.48.48,0,0,1-.48.48H13.38a.48.48,0,0,1-.48-.48V2.73A.48.48,0,0,1,13.38,2.25Z"/><path class="cls-2" d="M4.35,2.25H8.62a.48.48,0,0,1,.48.48V19.27a.48.48,0,0,1-.48.48H4.35a.48.48,0,0,1-.48-.48V2.73A.48.48,0,0,1,4.35,2.25Z"/></g></g></svg>