<svg xmlns="http://www.w3.org/2000/svg" viewBox="0 0 22 22"><defs><style>.cls-1{fill:none;}.cls-2{fill:#c1e5b7;}</style></defs><g id="Layer_2" data-name="Layer 2"><g id="Layer_1-2" data-name="Layer 1"><rect class="cls-1" width="22" height="22"/><path class="cls-2" d="M12.58,11l5.19-5.19a1.11,1.11,0,0,0,0-1.58,1.17,1.17,0,0,0-1.58,0L11,9.42,5.81,4.23a1.13,1.13,0,0,0-1.58,0,1.11,1.11,0,0,0,0,1.58L9.42,11,4.23,16.19a1.12,1.12,0,0,0,1.58,1.58L11,12.58l5.19,5.19a1.13,1.13,0,0,0,.79.32h0a1.13,1.13,0,0,0,.79-.32,1.11,1.11,0,0,0,0-1.58Z"/></g></g></svg>