<svg xmlns="http://www.w3.org/2000/svg" viewBox="0 0 22 22"><defs><style>.cls-1{fill:none;}.cls-2{fill:#fff;}</style></defs><g id="Layer_2" data-name="Layer 2"><g id="Layer_1-2" data-name="Layer 1"><rect class="cls-1" width="22" height="22"/><path class="cls-2" d="M19.15,11.42a1.42,1.42,0,0,0-2,0l-4.7,4.7V2.43a1.43,1.43,0,1,0-2.86,0V16.12l-4.7-4.7a1.43,1.43,0,0,0-2,2L10,20.58a1.44,1.44,0,0,0,.46.31,1.43,1.43,0,0,0,1.1,0,1.44,1.44,0,0,0,.46-.31l7.14-7.14A1.42,1.42,0,0,0,19.15,11.42Z"/></g></g></svg>