<?xml version="1.0" encoding="UTF-8" standalone="no"?>
<svg
   id="Layer_1"
   data-name="Layer 1"
   viewBox="0 0 1200 1200"
   version="1.1"
   xmlns="http://www.w3.org/2000/svg"
   xmlns:svg="http://www.w3.org/2000/svg">
  <defs
     id="defs4">
    <style
       id="style2">.cls-1{fill:#007aea;}.cls-2{fill:#fff;}</style>
  </defs>
  <path
     id="circle6"
     class="cls-1"
     style="fill:#007aea"
     d="M 1200,600 A 600,600 0 0 1 600,1200 600,600 0 0 1 0,600 600,600 0 0 1 600,0 600,600 0 0 1 1200,600 Z" />
  <path
     class="cls-2"
     d="M600,708.58c79.2,0,143.62-64.42,143.62-143.59V366.23c0-79.2-64.42-143.62-143.62-143.62S456.4,287,456.4,366.23V565C456.4,644.16,520.82,708.58,600,708.58ZM516.43,366.23a83.58,83.58,0,1,1,167.15,0V565a83.58,83.58,0,0,1-167.15,0Z"
     id="path8" />
  <path
     class="cls-2"
     d="M778.18,612.45V625.8c0,85.45-98.6,154.23-180.24,154.23-81.45,0-176.11-67.35-176.11-154.23V612.45H371.47V625.8c0,107,99.91,189.29,198.72,202.64l-.57,118.81,60,.26.58-119.77c97.85-15.48,198.32-98.23,198.32-201.94V612.45Z"
     id="path10" />
</svg>
