<?xml version="1.0" encoding="UTF-8" standalone="no"?>
<svg
   viewBox="0 0 20 20"
   version="1.1"
   id="svg16"
   width="20"
   height="20"
   xmlns="http://www.w3.org/2000/svg"
   xmlns:svg="http://www.w3.org/2000/svg">
  <defs
     id="defs4">
    <style
       id="style2">.cls-1{fill:none;}</style>
  </defs>
  <g
     id="Layer_2"
     data-name="Layer 2">
    <g
       id="Layer_1-2"
       data-name="Layer 1">
      <rect
         class="cls-1"
         width="20"
         height="20"
         id="rect48"
         x="0"
         y="0" />
      <path
         d="M 10,0.59 A 9.41,9.41 0 1 0 19.41,10 9.42,9.42 0 0 0 10,0.59 Z m 0,17.69 A 8.28,8.28 0 1 1 18.28,10 8.28,8.28 0 0 1 10,18.28 Z"
         id="path51" />
      <path
         id="polygon83"
         d="m 10.87,4.75 -0.15,6.91 H 9.28 L 9.13,4.75 Z" />
      <path
         id="circle57"
         d="M 11.09,14.15 A 1.09,1.09 0 0 1 10,15.24 1.09,1.09 0 0 1 8.91,14.15 1.09,1.09 0 0 1 10,13.06 a 1.09,1.09 0 0 1 1.09,1.09 z" />
    </g>
  </g>
</svg>
