<?xml version="1.0" encoding="UTF-8" standalone="no"?>
<svg
   viewBox="0 0 18 18"
   version="1.1"
   id="svg14"
   xmlns="http://www.w3.org/2000/svg"
   xmlns:svg="http://www.w3.org/2000/svg">
  <defs
     id="defs4">
    <style
       id="style2">.cls-1{fill:none;}.cls-2{fill-rule:evenodd;}</style>
  </defs>
  <g
     id="Layer_2"
     data-name="Layer 2">
    <g
       id="Layer_1-2"
       data-name="Layer 1">
      <path
         class="cls-2"
         d="M16.92,2l.16-.19a.47.47,0,0,0,0-.64L16.58.69a.49.49,0,0,0-.64,0l-.15.11L6.7,9.85,5.73,12l2.14-1,9.05-9Z"
         id="path63" />
      <path
         d="M.85,4V14.43A3,3,0,0,0,3.8,17.37H14.21a2.94,2.94,0,0,0,2.94-2.94V5.74H16l0,9.06a4,4,0,0,1-2,1.43H3.59A1.61,1.61,0,0,1,2,14.63V3.81a1.61,1.61,0,0,1,1.61-1.6h7.73V1.07H3.8A3,3,0,0,0,.85,4Z"
         id="path66" />
    </g>
  </g>
</svg>
