<?xml version="1.0" encoding="UTF-8" standalone="no"?>
<svg
   viewBox="0 0 17.03455 19.99008"
   version="1.1"
   id="svg12"
   width="17.03455"
   height="19.99008"
   xmlns="http://www.w3.org/2000/svg"
   xmlns:svg="http://www.w3.org/2000/svg">
  <defs
     id="defs4">
    <style
       id="style2">.cls-1{fill:none;}.cls-2{fill:#0b0d0d;}</style>
  </defs>
  <g
     id="Layer_2"
     data-name="Layer 2"
     transform="translate(-0.47967572,-0.51)">
    <g
       id="Layer_1-2"
       data-name="Layer 1">
      <rect
         class="cls-1"
         width="18"
         height="21"
         id="rect6"
         x="0"
         y="0" />
      <path
         id="path33"
         class="cls-2"
         transform="translate(0.47967572,0.51)"
         d="m 6.5195312,0 a 2.5,2.5 0 0 0 -2.5,2.4902344 v 0.4707031 h -1.5 A 2.49,2.49 0 0 0 0,5.4902344 V 17.490234 a 2.5,2.5 0 0 0 2.5195312,2.5 h 7.9999998 a 2.5,2.5 0 0 0 2.5,-2.5 v -0.470703 h 1.5 a 2.49,2.49 0 0 0 2.490235,-2.490234 V 6.4902344 h 0.02148 a 0.36,0.36 0 0 0 0,-0.109375 0.27,0.27 0 0 0 -0.06055,-0.1015625 L 10.839844,0.13085938 A 0.31,0.31 0 0 0 10.710938,0.0390625 L 10.519531,0 Z m 0,0.93945312 H 10.041016 V 4.4902344 A 2.5,2.5 0 0 0 12.519531,7 h 3.570313 v 7.539062 a 1.54,1.54 0 0 1 -1.570313,1.541016 h -1.5 V 9.4902344 l 0.01172,-0.00977 a 0.35,0.35 0 0 0 0,-0.1308594 0.42,0.42 0 0 0 -0.0918,-0.1386719 L 6.8203125,3.0898438 A 0.34,0.34 0 0 0 6.6796875,3 H 6.5800781 4.9707031 V 2.4902344 A 1.54,1.54 0 0 1 6.5195312,0.93945312 Z M 10.980469,1.609375 15.419922,6.0507812 H 12.519531 A 1.54,1.54 0 0 1 10.980469,4.4902344 Z M 2.5195312,3.9003906 h 3.4902344 v 3.5898438 a 2.5,2.5 0 0 0 2.5097656,2.4707031 h 3.5703128 v 7.5292965 a 1.54,1.54 0 0 1 -1.570313,1.548828 H 2.5195312 A 1.54,1.54 0 0 1 0.95117188,17.490234 V 5.4902344 A 1.54,1.54 0 0 1 2.5195312,3.9003906 Z M 6.9609375,4.5703125 11.400391,9.0097656 8.5195312,9.0390625 A 1.54,1.54 0 0 1 6.9609375,7.4902344 Z" />
    </g>
  </g>
</svg>
