<?xml version="1.0" encoding="UTF-8" standalone="no"?>
<svg
   viewBox="0 0 18.081993 16.177485"
   version="1.1"
   id="svg12"
   width="18.081993"
   height="16.177485"
   xmlns="http://www.w3.org/2000/svg"
   xmlns:svg="http://www.w3.org/2000/svg">
  <defs
     id="defs4">
    <style
       id="style2">.cls-1,.cls-2{fill:none;}.cls-2{stroke:#000;stroke-miterlimit:10;stroke-width:1.2px;}</style>
  </defs>
  <g
     id="Layer_2"
     data-name="Layer 2"
     transform="translate(-0.45800777,-0.40251598)">
    <g
       id="Layer_1-2"
       data-name="Layer 1">
      <rect
         class="cls-1"
         width="19"
         height="17"
         id="rect6"
         x="0"
         y="0" />
      <path
         id="path8"
         style="color:#000000;fill:#000000;stroke-miterlimit:10;-inkscape-stroke:none"
         transform="translate(0.45800777,0.40251598)"
         d="M 7.3320312,0.00195313 C 7.0148256,0.02005238 6.6956286,0.15038715 6.4550781,0.40625 L 0.36132812,6.7324219 H 0.359375 c -0.47912971,0.4986431 -0.47912971,1.3021381 0,1.8007812 l 0.001953,0.00195 6.10351568,6.2734378 c 0.3680864,0.37286 0.9272815,0.485687 1.4140624,0.292968 0.4997662,-0.193201 0.8330818,-0.680396 0.8222657,-1.216796 v -2.386719 h 0.5214843 c 2.7066908,-0.0096 5.1806338,1.519262 6.3808598,3.945312 l 0.0039,0.0059 0.002,0.0039 c 0.224409,0.434144 0.671578,0.713136 1.160156,0.724609 h 0.0059 0.234375 l 0.06445,-0.01367 c 0.584301,-0.130126 1.004776,-0.655298 1.007812,-1.253906 v -0.002 -1.410156 -0.002 C 18.076192,8.2528374 13.897846,4.0336912 8.703125,3.8222656 V 1.2988281 1.296875 C 8.7027306,0.7358104 8.3358465,0.26760661 7.8828125,0.08789062 7.7127367,0.02042253 7.5223546,-0.00890643 7.3320312,0.00195313 Z m 0.054688,1.18945307 c 0.015771,-0.00139 0.031257,0.00515 0.052734,0.013672 0.042955,0.01704 0.062554,0.019343 0.0625,0.091797 V 4.9472656 H 8.34375 c 4.722719,0.011382 8.533918,3.8277971 8.539062,8.5507814 v 1.40625 c -1.92e-4,0.03808 -0.0265,0.06013 -0.05859,0.07422 h -0.02734 c -0.05223,-0.0012 -0.0971,-0.02976 -0.121094,-0.07617 -1.403745,-2.827511 -4.295802,-4.615959 -7.4531248,-4.605469 h -1.71875 v 3.607422 0.0059 c 7.264e-4,0.03602 -0.019026,0.06347 -0.052734,0.07617 l -0.00586,0.002 -0.00586,0.002 c -0.042699,0.01716 -0.086812,0.0093 -0.1191406,-0.02344 l -6.0976563,-6.2675782 0.00391,0.00195 c -0.04153,-0.043221 -0.04153,-0.095451 0,-0.1386719 l 6.1015625,-6.3320312 0.00195,-0.00195 c 0.024814,-0.026394 0.04087,-0.035719 0.056641,-0.037109 z" />
    </g>
  </g>
</svg>
