<?xml version="1.0" encoding="UTF-8" standalone="no"?>
<svg
   id="Layer_1"
   data-name="Layer 1"
   viewBox="0 0 1200 1200"
   version="1.1"
   xmlns="http://www.w3.org/2000/svg"
   xmlns:svg="http://www.w3.org/2000/svg">
  <defs
     id="defs4">
    <style
       id="style2">.cls-1{fill:#9e9e9e;}</style>
  </defs>
  <path
     class="cls-1"
     d="M600,0C269.14,0,0,269.14,0,600s269.14,600,600,600,600-269.14,600-600S930.86,0,600,0Zm0,1125C310.5,1125,75,889.5,75,600S310.5,75,600,75s525,235.5,525,525S889.5,1125,600,1125Z"
     id="path6" />
  <path
     class="cls-1"
     d="M847.89,724.55c-9.09-11.91-21.88-17-37.6-14.3-17.53,2.93-25.59,16.31-30.13,26.12a178,178,0,0,1-53,66.82c-51.66,40.14-110.88,53-176.56,37.67-61.08-14.16-105.22-49.17-131.1-104-5-10.62-12.11-22-26.86-26.14-15.43-4.25-29.25-.34-39.69,11.67s-12.26,26.49-5.62,42a254.07,254.07,0,0,0,87.26,107.81c50.24,35.7,106.69,51.71,183,52h.3c102.88-5.21,185.54-60.75,232.86-156.38C858.53,751.82,857.6,737.27,847.89,724.55Z"
     id="path8" />
  <path
     id="circle10"
     class="cls-1"
     style="fill:#9e9e9e"
     d="m 887.51001,506.23999 a 75,75 0 0 1 -75,75 75,75 0 0 1 -75,-75 75,75 0 0 1 75,-75 75,75 0 0 1 75,75 z" />
  <path
     id="circle12"
     class="cls-1"
     style="fill:#9e9e9e"
     d="m 462.51001,506.23999 a 75,75 0 0 1 -75,75 75,75 0 0 1 -75,-75 75,75 0 0 1 75,-75 75,75 0 0 1 75,75 z" />
</svg>
