<?xml version="1.0" encoding="UTF-8" standalone="no"?>
<svg
   viewBox="0 0 18.060318 16.197485"
   version="1.1"
   id="svg12"
   width="18.060318"
   height="16.197485"
   xmlns="http://www.w3.org/2000/svg"
   xmlns:svg="http://www.w3.org/2000/svg">
  <defs
     id="defs4">
    <style
       id="style2">.cls-1,.cls-2{fill:none;}.cls-2{stroke:#000;stroke-miterlimit:10;stroke-width:1.2px;}</style>
  </defs>
  <g
     id="Layer_2"
     data-name="Layer 2"
     transform="translate(-0.45980661,-0.40251598)">
    <g
       id="Layer_1-2"
       data-name="Layer 1">
      <rect
         class="cls-1"
         width="19"
         height="17"
         id="rect6"
         x="0"
         y="0" />
      <path
         id="path8"
         style="color:#000000;fill:#000000;stroke-miterlimit:10;-inkscape-stroke:none"
         transform="translate(0.45980661,0.40251598)"
         d="M 10.75,0.00195313 C 10.559677,-0.00890469 10.371248,0.02042253 10.201172,0.08789062 9.7476369,0.26780552 9.3804409,0.73693362 9.3808594,1.2988281 V 3.8222656 C 4.186139,4.0336912 0.00766478,8.2527763 0.00195313,13.496094 v 0.002 1.394531 c -0.01460651,0.612203 0.41199497,1.158065 1.00976567,1.291016 l 0.0625,0.01367 h 0.234375 0.00586 c 0.4885778,-0.01152 0.9357471,-0.290466 1.1601563,-0.72461 l 0.00195,-0.0039 0.00195,-0.0059 C 3.6787418,13.036841 6.152685,11.507944 8.859375,11.517578 h 0.5214844 v 2.388672 c -0.010836,0.537387 0.3229037,1.024335 0.8242186,1.216797 0.486328,0.191643 1.044511,0.0794 1.41211,-0.292969 l 0.0039,-0.0039 6.113281,-6.3535158 0.0098,-0.00977 c 0.423819,-0.4861356 0.423819,-1.2228487 0,-1.7089844 l -0.0098,-0.011719 -0.01172,-0.011719 L 11.628906,0.40625 C 11.388364,0.15040771 11.067205,0.02004949 10.75,0.00195313 Z m -0.05469,1.18945307 c 0.01577,0.00139 0.03378,0.010716 0.05859,0.037109 l 0.002,0.00195 6.082032,6.3125 c 0.03425,0.040713 0.03529,0.09038 0,0.1308593 l -6.074219,6.3124999 c -0.03233,0.03275 -0.07644,0.04255 -0.119141,0.02539 l -0.0059,-0.0039 -0.0059,-0.002 c -0.03371,-0.01271 -0.05346,-0.04016 -0.05273,-0.07617 v -0.0059 -3.605469 h -1.7167968 -0.00195 c -3.1573224,-0.01049 -6.0493797,1.776005 -7.453125,4.603516 -0.023989,0.04641 -0.068865,0.07495 -0.1210937,0.07617 h -0.025391 c -0.033812,-0.01425 -0.061497,-0.03636 -0.060547,-0.07617 v -0.0078 -1.416015 C 1.2063442,8.7751333 5.0175157,4.958648 9.7402344,4.9472656 H 10.580078 V 1.296875 c -5.4e-5,-0.072454 0.0215,-0.074757 0.06445,-0.091797 0.02147,-0.00852 0.03501,-0.015063 0.05078,-0.013672 z" />
    </g>
  </g>
</svg>
