<?xml version="1.0" encoding="UTF-8" standalone="no"?>
<svg
   viewBox="0 0 19 19"
   version="1.1"
   id="svg18"
   xmlns="http://www.w3.org/2000/svg"
   xmlns:svg="http://www.w3.org/2000/svg">
  <defs
     id="defs4">
    <style
       id="style2">.cls-1{fill:none;}</style>
  </defs>
  <g
     id="Layer_2"
     data-name="Layer 2">
    <g
       id="Layer_1-2"
       data-name="Layer 1">
      <path
         d="M18.45,14.31V5.36a.86.86,0,0,0-.28-.67C16.74,3.27,15.48,2,14.31.82a.52.52,0,0,0-.19-.14.9.9,0,0,0-.41-.12H9.3c-2.18,0-3.76,0-4.59,0H4.6a3.68,3.68,0,0,0-.77.08A4.3,4.3,0,0,0,1.44,2.07,4,4,0,0,0,.56,4.62c0,1.12,0,2.26,0,3.37V10.3c0,1.29,0,2.64,0,4a5,5,0,0,0,.07.9A4.05,4.05,0,0,0,4.7,18.44h9.6a4.4,4.4,0,0,0,.86-.07A4.06,4.06,0,0,0,18.45,14.31ZM13.65,1.82l0-.08.06.06,3.54,3.5-.08,0a2.25,2.25,0,0,1-.61.08,2.94,2.94,0,0,1-1.95-.75A3.05,3.05,0,0,1,13.65,1.82Zm.63,15.58H4.72A3,3,0,0,1,1.6,14.28V4.73A3,3,0,0,1,4.71,1.61h7.9v0a3.93,3.93,0,0,0,1.15,3.6,4,4,0,0,0,3.59,1.15h.06v7.88A3,3,0,0,1,14.28,17.4Z"
         id="path55" />
      <path
         d="M11.61,10.39c-.39,0-.53.32-.61.6a1.56,1.56,0,0,1-3-.08.65.65,0,1,0-1.26.33,2.87,2.87,0,0,0,5.59,0,.65.65,0,0,0-.14-.59A.68.68,0,0,0,11.61,10.39Z"
         id="path58" />
      <path
         d="M11.8,7h-.08A1.55,1.55,0,0,0,10.21,8.3a.8.8,0,0,0,.13.61.59.59,0,0,0,.43.24.66.66,0,0,0,.74-.64c0-.2.14-.23.23-.23s.21.09.23.25a.66.66,0,0,0,.65.63h.05a.65.65,0,0,0,.6-.72A1.53,1.53,0,0,0,11.8,7Z"
         id="path61" />
      <path
         d="M7.07,8.54c0-.28.21-.26.26-.26s.16,0,.21.29a.66.66,0,0,0,.65.59h.06a.67.67,0,0,0,.6-.68A1.56,1.56,0,0,0,7.3,7,1.62,1.62,0,0,0,5.73,8.45V8.5l0,.05,0,.1A1,1,0,0,0,6,9a.58.58,0,0,0,.67.17A.67.67,0,0,0,7.07,8.54Z"
         id="path64" />
    </g>
  </g>
</svg>
